<?xml version="1.0" encoding="utf-8" standalone="no"?>
<!DOCTYPE svg PUBLIC "-//W3C//DTD SVG 1.1//EN"
  "http://www.w3.org/Graphics/SVG/1.1/DTD/svg11.dtd">
<svg xmlns:xlink="http://www.w3.org/1999/xlink" width="432pt" height="288pt" viewBox="0 0 432 288" xmlns="http://www.w3.org/2000/svg" version="1.1">
 <metadata>
  <rdf:RDF xmlns:dc="http://purl.org/dc/elements/1.1/" xmlns:cc="http://creativecommons.org/ns#" xmlns:rdf="http://www.w3.org/1999/02/22-rdf-syntax-ns#">
   <cc:Work>
    <dc:type rdf:resource="http://purl.org/dc/dcmitype/StillImage"/>
    <dc:date>2022-04-21T19:01:34.713936</dc:date>
    <dc:format>image/svg+xml</dc:format>
    <dc:creator>
     <cc:Agent>
      <dc:title>Matplotlib v3.5.1, https://matplotlib.org/</dc:title>
     </cc:Agent>
    </dc:creator>
   </cc:Work>
  </rdf:RDF>
 </metadata>
 <defs>
  <style type="text/css">*{stroke-linejoin: round; stroke-linecap: butt}</style>
 </defs>
 <g id="figure_1">
  <g id="patch_1">
   <path d="M 0 288 
L 432 288 
L 432 0 
L 0 0 
L 0 288 
z
" style="fill: none"/>
  </g>
  <g id="axes_1">
   <g id="patch_2">
    <path d="M 54 252 
L 388.8 252 
L 388.8 34.56 
L 54 34.56 
z
" style="fill: #ffffff"/>
   </g>
   <g id="matplotlib.axis_1">
    <g id="xtick_1">
     <g id="line2d_1">
      <defs>
       <path id="m5a2d490c2a" d="M 0 0 
L 0 3.5 
" style="stroke: #000000; stroke-width: 0.8"/>
      </defs>
      <g>
       <use xlink:href="#m5a2d490c2a" x="60.897072" y="252" style="stroke: #000000; stroke-width: 0.8"/>
      </g>
     </g>
     <g id="text_1">
      <!-- 8 -->
      <g transform="translate(57.897072 267.3325)scale(0.12 -0.12)">
       <defs>
        <path id="TimesNewRomanPSMT-38" d="M 1228 2134 
Q 725 2547 579 2797 
Q 434 3047 434 3316 
Q 434 3728 753 4026 
Q 1072 4325 1600 4325 
Q 2113 4325 2425 4047 
Q 2738 3769 2738 3413 
Q 2738 3175 2569 2928 
Q 2400 2681 1866 2347 
Q 2416 1922 2594 1678 
Q 2831 1359 2831 1006 
Q 2831 559 2490 242 
Q 2150 -75 1597 -75 
Q 994 -75 656 303 
Q 388 606 388 966 
Q 388 1247 577 1523 
Q 766 1800 1228 2134 
z
M 1719 2469 
Q 2094 2806 2194 3001 
Q 2294 3197 2294 3444 
Q 2294 3772 2109 3958 
Q 1925 4144 1606 4144 
Q 1288 4144 1088 3959 
Q 888 3775 888 3528 
Q 888 3366 970 3203 
Q 1053 3041 1206 2894 
L 1719 2469 
z
M 1375 2016 
Q 1116 1797 991 1539 
Q 866 1281 866 981 
Q 866 578 1086 336 
Q 1306 94 1647 94 
Q 1984 94 2187 284 
Q 2391 475 2391 747 
Q 2391 972 2272 1150 
Q 2050 1481 1375 2016 
z
" transform="scale(0.015625)"/>
       </defs>
       <use xlink:href="#TimesNewRomanPSMT-38"/>
      </g>
     </g>
    </g>
    <g id="xtick_2">
     <g id="line2d_2">
      <g>
       <use xlink:href="#m5a2d490c2a" x="117.921292" y="252" style="stroke: #000000; stroke-width: 0.8"/>
      </g>
     </g>
     <g id="text_2">
      <!-- 10 -->
      <g transform="translate(111.921292 267.3325)scale(0.12 -0.12)">
       <defs>
        <path id="TimesNewRomanPSMT-31" d="M 750 3822 
L 1781 4325 
L 1884 4325 
L 1884 747 
Q 1884 391 1914 303 
Q 1944 216 2037 169 
Q 2131 122 2419 116 
L 2419 0 
L 825 0 
L 825 116 
Q 1125 122 1212 167 
Q 1300 213 1334 289 
Q 1369 366 1369 747 
L 1369 3034 
Q 1369 3497 1338 3628 
Q 1316 3728 1258 3775 
Q 1200 3822 1119 3822 
Q 1003 3822 797 3725 
L 750 3822 
z
" transform="scale(0.015625)"/>
        <path id="TimesNewRomanPSMT-30" d="M 231 2094 
Q 231 2819 450 3342 
Q 669 3866 1031 4122 
Q 1313 4325 1613 4325 
Q 2100 4325 2488 3828 
Q 2972 3213 2972 2159 
Q 2972 1422 2759 906 
Q 2547 391 2217 158 
Q 1888 -75 1581 -75 
Q 975 -75 572 641 
Q 231 1244 231 2094 
z
M 844 2016 
Q 844 1141 1059 588 
Q 1238 122 1591 122 
Q 1759 122 1940 273 
Q 2122 425 2216 781 
Q 2359 1319 2359 2297 
Q 2359 3022 2209 3506 
Q 2097 3866 1919 4016 
Q 1791 4119 1609 4119 
Q 1397 4119 1231 3928 
Q 1006 3669 925 3112 
Q 844 2556 844 2016 
z
" transform="scale(0.015625)"/>
       </defs>
       <use xlink:href="#TimesNewRomanPSMT-31"/>
       <use xlink:href="#TimesNewRomanPSMT-30" x="50"/>
      </g>
     </g>
    </g>
    <g id="xtick_3">
     <g id="line2d_3">
      <g>
       <use xlink:href="#m5a2d490c2a" x="174.945511" y="252" style="stroke: #000000; stroke-width: 0.8"/>
      </g>
     </g>
     <g id="text_3">
      <!-- 12 -->
      <g transform="translate(168.945511 267.3325)scale(0.12 -0.12)">
       <defs>
        <path id="TimesNewRomanPSMT-32" d="M 2934 816 
L 2638 0 
L 138 0 
L 138 116 
Q 1241 1122 1691 1759 
Q 2141 2397 2141 2925 
Q 2141 3328 1894 3587 
Q 1647 3847 1303 3847 
Q 991 3847 742 3664 
Q 494 3481 375 3128 
L 259 3128 
Q 338 3706 661 4015 
Q 984 4325 1469 4325 
Q 1984 4325 2329 3994 
Q 2675 3663 2675 3213 
Q 2675 2891 2525 2569 
Q 2294 2063 1775 1497 
Q 997 647 803 472 
L 1909 472 
Q 2247 472 2383 497 
Q 2519 522 2628 598 
Q 2738 675 2819 816 
L 2934 816 
z
" transform="scale(0.015625)"/>
       </defs>
       <use xlink:href="#TimesNewRomanPSMT-31"/>
       <use xlink:href="#TimesNewRomanPSMT-32" x="50"/>
      </g>
     </g>
    </g>
    <g id="xtick_4">
     <g id="line2d_4">
      <g>
       <use xlink:href="#m5a2d490c2a" x="231.969731" y="252" style="stroke: #000000; stroke-width: 0.8"/>
      </g>
     </g>
     <g id="text_4">
      <!-- 14 -->
      <g transform="translate(225.969731 267.3325)scale(0.12 -0.12)">
       <defs>
        <path id="TimesNewRomanPSMT-34" d="M 2978 1563 
L 2978 1119 
L 2409 1119 
L 2409 0 
L 1894 0 
L 1894 1119 
L 100 1119 
L 100 1519 
L 2066 4325 
L 2409 4325 
L 2409 1563 
L 2978 1563 
z
M 1894 1563 
L 1894 3666 
L 406 1563 
L 1894 1563 
z
" transform="scale(0.015625)"/>
       </defs>
       <use xlink:href="#TimesNewRomanPSMT-31"/>
       <use xlink:href="#TimesNewRomanPSMT-34" x="50"/>
      </g>
     </g>
    </g>
    <g id="xtick_5">
     <g id="line2d_5">
      <g>
       <use xlink:href="#m5a2d490c2a" x="288.99395" y="252" style="stroke: #000000; stroke-width: 0.8"/>
      </g>
     </g>
     <g id="text_5">
      <!-- 16 -->
      <g transform="translate(282.99395 267.3325)scale(0.12 -0.12)">
       <defs>
        <path id="TimesNewRomanPSMT-36" d="M 2869 4325 
L 2869 4209 
Q 2456 4169 2195 4045 
Q 1934 3922 1679 3669 
Q 1425 3416 1258 3105 
Q 1091 2794 978 2366 
Q 1428 2675 1881 2675 
Q 2316 2675 2634 2325 
Q 2953 1975 2953 1425 
Q 2953 894 2631 456 
Q 2244 -75 1606 -75 
Q 1172 -75 869 213 
Q 275 772 275 1663 
Q 275 2231 503 2743 
Q 731 3256 1154 3653 
Q 1578 4050 1965 4187 
Q 2353 4325 2688 4325 
L 2869 4325 
z
M 925 2138 
Q 869 1716 869 1456 
Q 869 1156 980 804 
Q 1091 453 1309 247 
Q 1469 100 1697 100 
Q 1969 100 2183 356 
Q 2397 613 2397 1088 
Q 2397 1622 2184 2012 
Q 1972 2403 1581 2403 
Q 1463 2403 1327 2353 
Q 1191 2303 925 2138 
z
" transform="scale(0.015625)"/>
       </defs>
       <use xlink:href="#TimesNewRomanPSMT-31"/>
       <use xlink:href="#TimesNewRomanPSMT-36" x="50"/>
      </g>
     </g>
    </g>
    <g id="xtick_6">
     <g id="line2d_6">
      <g>
       <use xlink:href="#m5a2d490c2a" x="346.01817" y="252" style="stroke: #000000; stroke-width: 0.8"/>
      </g>
     </g>
     <g id="text_6">
      <!-- 18 -->
      <g transform="translate(340.01817 267.3325)scale(0.12 -0.12)">
       <use xlink:href="#TimesNewRomanPSMT-31"/>
       <use xlink:href="#TimesNewRomanPSMT-38" x="50"/>
      </g>
     </g>
    </g>
    <g id="text_7">
     <!-- m -->
     <g transform="translate(216.733125 282.231875)scale(0.12 -0.12)">
      <defs>
       <path id="TimesNewRomanPSMT-6d" d="M 1050 2338 
Q 1363 2650 1419 2697 
Q 1559 2816 1721 2881 
Q 1884 2947 2044 2947 
Q 2313 2947 2506 2790 
Q 2700 2634 2766 2338 
Q 3088 2713 3309 2830 
Q 3531 2947 3766 2947 
Q 3994 2947 4170 2830 
Q 4347 2713 4450 2447 
Q 4519 2266 4519 1878 
L 4519 647 
Q 4519 378 4559 278 
Q 4591 209 4675 161 
Q 4759 113 4950 113 
L 4950 0 
L 3538 0 
L 3538 113 
L 3597 113 
Q 3781 113 3884 184 
Q 3956 234 3988 344 
Q 4000 397 4000 647 
L 4000 1878 
Q 4000 2228 3916 2372 
Q 3794 2572 3525 2572 
Q 3359 2572 3192 2489 
Q 3025 2406 2788 2181 
L 2781 2147 
L 2788 2013 
L 2788 647 
Q 2788 353 2820 281 
Q 2853 209 2943 161 
Q 3034 113 3253 113 
L 3253 0 
L 1806 0 
L 1806 113 
Q 2044 113 2133 169 
Q 2222 225 2256 338 
Q 2272 391 2272 647 
L 2272 1878 
Q 2272 2228 2169 2381 
Q 2031 2581 1784 2581 
Q 1616 2581 1450 2491 
Q 1191 2353 1050 2181 
L 1050 647 
Q 1050 366 1089 281 
Q 1128 197 1204 155 
Q 1281 113 1516 113 
L 1516 0 
L 100 0 
L 100 113 
Q 297 113 375 155 
Q 453 197 493 289 
Q 534 381 534 647 
L 534 1741 
Q 534 2213 506 2350 
Q 484 2453 437 2492 
Q 391 2531 309 2531 
Q 222 2531 100 2484 
L 53 2597 
L 916 2947 
L 1050 2947 
L 1050 2338 
z
" transform="scale(0.015625)"/>
      </defs>
      <use xlink:href="#TimesNewRomanPSMT-6d"/>
     </g>
    </g>
   </g>
   <g id="matplotlib.axis_2">
    <g id="ytick_1">
     <g id="line2d_7">
      <defs>
       <path id="md768d44cb4" d="M 0 0 
L -3.5 0 
" style="stroke: #000000; stroke-width: 0.8"/>
      </defs>
      <g>
       <use xlink:href="#md768d44cb4" x="54" y="228.338449" style="stroke: #000000; stroke-width: 0.8"/>
      </g>
     </g>
     <g id="text_8">
      <!-- 0.0 -->
      <g transform="translate(32 232.504699)scale(0.12 -0.12)">
       <defs>
        <path id="TimesNewRomanPSMT-2e" d="M 800 606 
Q 947 606 1047 504 
Q 1147 403 1147 259 
Q 1147 116 1045 14 
Q 944 -88 800 -88 
Q 656 -88 554 14 
Q 453 116 453 259 
Q 453 406 554 506 
Q 656 606 800 606 
z
" transform="scale(0.015625)"/>
       </defs>
       <use xlink:href="#TimesNewRomanPSMT-30"/>
       <use xlink:href="#TimesNewRomanPSMT-2e" x="50"/>
       <use xlink:href="#TimesNewRomanPSMT-30" x="75"/>
      </g>
     </g>
    </g>
    <g id="ytick_2">
     <g id="line2d_8">
      <g>
       <use xlink:href="#md768d44cb4" x="54" y="198.677995" style="stroke: #000000; stroke-width: 0.8"/>
      </g>
     </g>
     <g id="text_9">
      <!-- 0.5 -->
      <g transform="translate(32 202.844245)scale(0.12 -0.12)">
       <defs>
        <path id="TimesNewRomanPSMT-35" d="M 2778 4238 
L 2534 3706 
L 1259 3706 
L 981 3138 
Q 1809 3016 2294 2522 
Q 2709 2097 2709 1522 
Q 2709 1188 2573 903 
Q 2438 619 2231 419 
Q 2025 219 1772 97 
Q 1413 -75 1034 -75 
Q 653 -75 479 54 
Q 306 184 306 341 
Q 306 428 378 495 
Q 450 563 559 563 
Q 641 563 702 538 
Q 763 513 909 409 
Q 1144 247 1384 247 
Q 1750 247 2026 523 
Q 2303 800 2303 1197 
Q 2303 1581 2056 1914 
Q 1809 2247 1375 2428 
Q 1034 2569 447 2591 
L 1259 4238 
L 2778 4238 
z
" transform="scale(0.015625)"/>
       </defs>
       <use xlink:href="#TimesNewRomanPSMT-30"/>
       <use xlink:href="#TimesNewRomanPSMT-2e" x="50"/>
       <use xlink:href="#TimesNewRomanPSMT-35" x="75"/>
      </g>
     </g>
    </g>
    <g id="ytick_3">
     <g id="line2d_9">
      <g>
       <use xlink:href="#md768d44cb4" x="54" y="169.017542" style="stroke: #000000; stroke-width: 0.8"/>
      </g>
     </g>
     <g id="text_10">
      <!-- 1.0 -->
      <g transform="translate(32 173.183792)scale(0.12 -0.12)">
       <use xlink:href="#TimesNewRomanPSMT-31"/>
       <use xlink:href="#TimesNewRomanPSMT-2e" x="50"/>
       <use xlink:href="#TimesNewRomanPSMT-30" x="75"/>
      </g>
     </g>
    </g>
    <g id="ytick_4">
     <g id="line2d_10">
      <g>
       <use xlink:href="#md768d44cb4" x="54" y="139.357088" style="stroke: #000000; stroke-width: 0.8"/>
      </g>
     </g>
     <g id="text_11">
      <!-- 1.5 -->
      <g transform="translate(32 143.523338)scale(0.12 -0.12)">
       <use xlink:href="#TimesNewRomanPSMT-31"/>
       <use xlink:href="#TimesNewRomanPSMT-2e" x="50"/>
       <use xlink:href="#TimesNewRomanPSMT-35" x="75"/>
      </g>
     </g>
    </g>
    <g id="ytick_5">
     <g id="line2d_11">
      <g>
       <use xlink:href="#md768d44cb4" x="54" y="109.696634" style="stroke: #000000; stroke-width: 0.8"/>
      </g>
     </g>
     <g id="text_12">
      <!-- 2.0 -->
      <g transform="translate(32 113.862884)scale(0.12 -0.12)">
       <use xlink:href="#TimesNewRomanPSMT-32"/>
       <use xlink:href="#TimesNewRomanPSMT-2e" x="50"/>
       <use xlink:href="#TimesNewRomanPSMT-30" x="75"/>
      </g>
     </g>
    </g>
    <g id="ytick_6">
     <g id="line2d_12">
      <g>
       <use xlink:href="#md768d44cb4" x="54" y="80.036181" style="stroke: #000000; stroke-width: 0.8"/>
      </g>
     </g>
     <g id="text_13">
      <!-- 2.5 -->
      <g transform="translate(32 84.202431)scale(0.12 -0.12)">
       <use xlink:href="#TimesNewRomanPSMT-32"/>
       <use xlink:href="#TimesNewRomanPSMT-2e" x="50"/>
       <use xlink:href="#TimesNewRomanPSMT-35" x="75"/>
      </g>
     </g>
    </g>
    <g id="ytick_7">
     <g id="line2d_13">
      <g>
       <use xlink:href="#md768d44cb4" x="54" y="50.375727" style="stroke: #000000; stroke-width: 0.8"/>
      </g>
     </g>
     <g id="text_14">
      <!-- 3.0 -->
      <g transform="translate(32 54.541977)scale(0.12 -0.12)">
       <defs>
        <path id="TimesNewRomanPSMT-33" d="M 325 3431 
Q 506 3859 782 4092 
Q 1059 4325 1472 4325 
Q 1981 4325 2253 3994 
Q 2459 3747 2459 3466 
Q 2459 3003 1878 2509 
Q 2269 2356 2469 2072 
Q 2669 1788 2669 1403 
Q 2669 853 2319 450 
Q 1863 -75 997 -75 
Q 569 -75 414 31 
Q 259 138 259 259 
Q 259 350 332 419 
Q 406 488 509 488 
Q 588 488 669 463 
Q 722 447 909 348 
Q 1097 250 1169 231 
Q 1284 197 1416 197 
Q 1734 197 1970 444 
Q 2206 691 2206 1028 
Q 2206 1275 2097 1509 
Q 2016 1684 1919 1775 
Q 1784 1900 1550 2001 
Q 1316 2103 1072 2103 
L 972 2103 
L 972 2197 
Q 1219 2228 1467 2375 
Q 1716 2522 1828 2728 
Q 1941 2934 1941 3181 
Q 1941 3503 1739 3701 
Q 1538 3900 1238 3900 
Q 753 3900 428 3381 
L 325 3431 
z
" transform="scale(0.015625)"/>
       </defs>
       <use xlink:href="#TimesNewRomanPSMT-33"/>
       <use xlink:href="#TimesNewRomanPSMT-2e" x="50"/>
       <use xlink:href="#TimesNewRomanPSMT-30" x="75"/>
      </g>
     </g>
    </g>
    <g id="text_15">
     <!-- log N(m) -->
     <g transform="translate(25.410625 165.4425)rotate(-90)scale(0.12 -0.12)">
      <defs>
       <path id="TimesNewRomanPSMT-6c" d="M 1184 4444 
L 1184 647 
Q 1184 378 1223 290 
Q 1263 203 1344 158 
Q 1425 113 1647 113 
L 1647 0 
L 244 0 
L 244 113 
Q 441 113 512 153 
Q 584 194 625 287 
Q 666 381 666 647 
L 666 3247 
Q 666 3731 644 3842 
Q 622 3953 573 3993 
Q 525 4034 450 4034 
Q 369 4034 244 3984 
L 191 4094 
L 1044 4444 
L 1184 4444 
z
" transform="scale(0.015625)"/>
       <path id="TimesNewRomanPSMT-6f" d="M 1600 2947 
Q 2250 2947 2644 2453 
Q 2978 2031 2978 1484 
Q 2978 1100 2793 706 
Q 2609 313 2286 112 
Q 1963 -88 1566 -88 
Q 919 -88 538 428 
Q 216 863 216 1403 
Q 216 1797 411 2186 
Q 606 2575 925 2761 
Q 1244 2947 1600 2947 
z
M 1503 2744 
Q 1338 2744 1170 2645 
Q 1003 2547 900 2300 
Q 797 2053 797 1666 
Q 797 1041 1045 587 
Q 1294 134 1700 134 
Q 2003 134 2200 384 
Q 2397 634 2397 1244 
Q 2397 2006 2069 2444 
Q 1847 2744 1503 2744 
z
" transform="scale(0.015625)"/>
       <path id="TimesNewRomanPSMT-67" d="M 966 1044 
Q 703 1172 562 1401 
Q 422 1631 422 1909 
Q 422 2334 742 2640 
Q 1063 2947 1563 2947 
Q 1972 2947 2272 2747 
L 2878 2747 
Q 3013 2747 3034 2739 
Q 3056 2731 3066 2713 
Q 3084 2684 3084 2613 
Q 3084 2531 3069 2500 
Q 3059 2484 3036 2475 
Q 3013 2466 2878 2466 
L 2506 2466 
Q 2681 2241 2681 1891 
Q 2681 1491 2375 1206 
Q 2069 922 1553 922 
Q 1341 922 1119 984 
Q 981 866 932 777 
Q 884 688 884 625 
Q 884 572 936 522 
Q 988 472 1138 450 
Q 1225 438 1575 428 
Q 2219 413 2409 384 
Q 2700 344 2873 169 
Q 3047 -6 3047 -263 
Q 3047 -616 2716 -925 
Q 2228 -1381 1444 -1381 
Q 841 -1381 425 -1109 
Q 191 -953 191 -784 
Q 191 -709 225 -634 
Q 278 -519 444 -313 
Q 466 -284 763 25 
Q 600 122 533 198 
Q 466 275 466 372 
Q 466 481 555 628 
Q 644 775 966 1044 
z
M 1509 2797 
Q 1278 2797 1122 2612 
Q 966 2428 966 2047 
Q 966 1553 1178 1281 
Q 1341 1075 1591 1075 
Q 1828 1075 1981 1253 
Q 2134 1431 2134 1813 
Q 2134 2309 1919 2591 
Q 1759 2797 1509 2797 
z
M 934 0 
Q 788 -159 713 -296 
Q 638 -434 638 -550 
Q 638 -700 819 -813 
Q 1131 -1006 1722 -1006 
Q 2284 -1006 2551 -807 
Q 2819 -609 2819 -384 
Q 2819 -222 2659 -153 
Q 2497 -84 2016 -72 
Q 1313 -53 934 0 
z
" transform="scale(0.015625)"/>
       <path id="TimesNewRomanPSMT-20" transform="scale(0.015625)"/>
       <path id="TimesNewRomanPSMT-4e" d="M -84 4238 
L 1066 4238 
L 3656 1059 
L 3656 3503 
Q 3656 3894 3569 3991 
Q 3453 4122 3203 4122 
L 3056 4122 
L 3056 4238 
L 4531 4238 
L 4531 4122 
L 4381 4122 
Q 4113 4122 4000 3959 
Q 3931 3859 3931 3503 
L 3931 -69 
L 3819 -69 
L 1025 3344 
L 1025 734 
Q 1025 344 1109 247 
Q 1228 116 1475 116 
L 1625 116 
L 1625 0 
L 150 0 
L 150 116 
L 297 116 
Q 569 116 681 278 
Q 750 378 750 734 
L 750 3681 
Q 566 3897 470 3965 
Q 375 4034 191 4094 
Q 100 4122 -84 4122 
L -84 4238 
z
" transform="scale(0.015625)"/>
       <path id="TimesNewRomanPSMT-28" d="M 1988 -1253 
L 1988 -1369 
Q 1516 -1131 1200 -813 
Q 750 -359 506 256 
Q 263 872 263 1534 
Q 263 2503 741 3301 
Q 1219 4100 1988 4444 
L 1988 4313 
Q 1603 4100 1356 3731 
Q 1109 3363 987 2797 
Q 866 2231 866 1616 
Q 866 947 969 400 
Q 1050 -31 1165 -292 
Q 1281 -553 1476 -793 
Q 1672 -1034 1988 -1253 
z
" transform="scale(0.015625)"/>
       <path id="TimesNewRomanPSMT-29" d="M 144 4313 
L 144 4444 
Q 619 4209 934 3891 
Q 1381 3434 1625 2820 
Q 1869 2206 1869 1541 
Q 1869 572 1392 -226 
Q 916 -1025 144 -1369 
L 144 -1253 
Q 528 -1038 776 -670 
Q 1025 -303 1145 264 
Q 1266 831 1266 1447 
Q 1266 2113 1163 2663 
Q 1084 3094 967 3353 
Q 850 3613 656 3853 
Q 463 4094 144 4313 
z
" transform="scale(0.015625)"/>
      </defs>
      <use xlink:href="#TimesNewRomanPSMT-6c"/>
      <use xlink:href="#TimesNewRomanPSMT-6f" x="27.783203"/>
      <use xlink:href="#TimesNewRomanPSMT-67" x="77.783203"/>
      <use xlink:href="#TimesNewRomanPSMT-20" x="127.783203"/>
      <use xlink:href="#TimesNewRomanPSMT-4e" x="152.783203"/>
      <use xlink:href="#TimesNewRomanPSMT-28" x="225"/>
      <use xlink:href="#TimesNewRomanPSMT-6d" x="258.300781"/>
      <use xlink:href="#TimesNewRomanPSMT-29" x="336.083984"/>
     </g>
    </g>
   </g>
   <g id="LineCollection_1">
    <path d="M 69.218182 242.116364 
L 69.218182 196.703162 
" clip-path="url(#p60a2bddd48)" style="fill: none; stroke: #4b4bfe; stroke-width: 1.5"/>
    <path d="M 75.559091 242.116364 
L 75.559091 196.703162 
" clip-path="url(#p60a2bddd48)" style="fill: none; stroke: #4b4bfe; stroke-width: 1.5"/>
    <path d="M 81.9 242.116364 
L 81.9 196.703162 
" clip-path="url(#p60a2bddd48)" style="fill: none; stroke: #4b4bfe; stroke-width: 1.5"/>
    <path d="M 88.240909 242.116364 
L 88.240909 196.703162 
" clip-path="url(#p60a2bddd48)" style="fill: none; stroke: #4b4bfe; stroke-width: 1.5"/>
    <path d="M 94.581818 242.116364 
L 94.581818 196.703162 
" clip-path="url(#p60a2bddd48)" style="fill: none; stroke: #4b4bfe; stroke-width: 1.5"/>
    <path d="M 100.922727 210.481076 
L 100.922727 182.177811 
" clip-path="url(#p60a2bddd48)" style="fill: none; stroke: #4b4bfe; stroke-width: 1.5"/>
    <path d="M 107.263636 195.694701 
L 107.263636 173.358024 
" clip-path="url(#p60a2bddd48)" style="fill: none; stroke: #4b4bfe; stroke-width: 1.5"/>
    <path d="M 113.604545 186.005706 
L 113.604545 166.967092 
" clip-path="url(#p60a2bddd48)" style="fill: none; stroke: #4b4bfe; stroke-width: 1.5"/>
    <path d="M 119.945455 178.810744 
L 119.945455 161.938716 
" clip-path="url(#p60a2bddd48)" style="fill: none; stroke: #4b4bfe; stroke-width: 1.5"/>
    <path d="M 126.286364 178.810744 
L 126.286364 161.938716 
" clip-path="url(#p60a2bddd48)" style="fill: none; stroke: #4b4bfe; stroke-width: 1.5"/>
    <path d="M 132.627273 173.095899 
L 132.627273 157.786629 
" clip-path="url(#p60a2bddd48)" style="fill: none; stroke: #4b4bfe; stroke-width: 1.5"/>
    <path d="M 138.968182 168.360432 
L 138.968182 154.24698 
" clip-path="url(#p60a2bddd48)" style="fill: none; stroke: #4b4bfe; stroke-width: 1.5"/>
    <path d="M 145.309091 160.799515 
L 145.309091 148.422133 
" clip-path="url(#p60a2bddd48)" style="fill: none; stroke: #4b4bfe; stroke-width: 1.5"/>
    <path d="M 151.65 157.680621 
L 151.65 145.961173 
" clip-path="url(#p60a2bddd48)" style="fill: none; stroke: #4b4bfe; stroke-width: 1.5"/>
    <path d="M 157.990909 152.345011 
L 157.990909 141.677573 
" clip-path="url(#p60a2bddd48)" style="fill: none; stroke: #4b4bfe; stroke-width: 1.5"/>
    <path d="M 164.331818 150.024965 
L 164.331818 139.787361 
" clip-path="url(#p60a2bddd48)" style="fill: none; stroke: #4b4bfe; stroke-width: 1.5"/>
    <path d="M 170.672727 144.969763 
L 170.672727 135.614033 
" clip-path="url(#p60a2bddd48)" style="fill: none; stroke: #4b4bfe; stroke-width: 1.5"/>
    <path d="M 177.013636 140.714276 
L 177.013636 132.045828 
" clip-path="url(#p60a2bddd48)" style="fill: none; stroke: #4b4bfe; stroke-width: 1.5"/>
    <path d="M 183.354545 135.057192 
L 183.354545 127.229771 
" clip-path="url(#p60a2bddd48)" style="fill: none; stroke: #4b4bfe; stroke-width: 1.5"/>
    <path d="M 189.695455 129.859504 
L 189.695455 122.73691 
" clip-path="url(#p60a2bddd48)" style="fill: none; stroke: #4b4bfe; stroke-width: 1.5"/>
    <path d="M 196.036364 123.370964 
L 196.036364 117.044523 
" clip-path="url(#p60a2bddd48)" style="fill: none; stroke: #4b4bfe; stroke-width: 1.5"/>
    <path d="M 202.377273 119.193513 
L 202.377273 113.334275 
" clip-path="url(#p60a2bddd48)" style="fill: none; stroke: #4b4bfe; stroke-width: 1.5"/>
    <path d="M 208.718182 113.806937 
L 208.718182 108.501867 
" clip-path="url(#p60a2bddd48)" style="fill: none; stroke: #4b4bfe; stroke-width: 1.5"/>
    <path d="M 215.059091 110.827779 
L 215.059091 105.807354 
" clip-path="url(#p60a2bddd48)" style="fill: none; stroke: #4b4bfe; stroke-width: 1.5"/>
    <path d="M 221.4 105.302244 
L 221.4 100.771519 
" clip-path="url(#p60a2bddd48)" style="fill: none; stroke: #4b4bfe; stroke-width: 1.5"/>
    <path d="M 227.740909 100.047817 
L 227.740909 95.939988 
" clip-path="url(#p60a2bddd48)" style="fill: none; stroke: #4b4bfe; stroke-width: 1.5"/>
    <path d="M 234.081818 95.670736 
L 234.081818 91.885911 
" clip-path="url(#p60a2bddd48)" style="fill: none; stroke: #4b4bfe; stroke-width: 1.5"/>
    <path d="M 240.422727 91.548619 
L 240.422727 88.045453 
" clip-path="url(#p60a2bddd48)" style="fill: none; stroke: #4b4bfe; stroke-width: 1.5"/>
    <path d="M 246.763636 86.935 
L 246.763636 83.723009 
" clip-path="url(#p60a2bddd48)" style="fill: none; stroke: #4b4bfe; stroke-width: 1.5"/>
    <path d="M 253.104545 83.461955 
L 253.104545 80.453514 
" clip-path="url(#p60a2bddd48)" style="fill: none; stroke: #4b4bfe; stroke-width: 1.5"/>
    <path d="M 259.445455 79.527489 
L 259.445455 76.734495 
" clip-path="url(#p60a2bddd48)" style="fill: none; stroke: #4b4bfe; stroke-width: 1.5"/>
    <path d="M 265.786364 75.502408 
L 265.786364 72.914244 
" clip-path="url(#p60a2bddd48)" style="fill: none; stroke: #4b4bfe; stroke-width: 1.5"/>
    <path d="M 272.127273 71.326027 
L 272.127273 68.934875 
" clip-path="url(#p60a2bddd48)" style="fill: none; stroke: #4b4bfe; stroke-width: 1.5"/>
    <path d="M 278.468182 67.628642 
L 278.468182 65.399612 
" clip-path="url(#p60a2bddd48)" style="fill: none; stroke: #4b4bfe; stroke-width: 1.5"/>
    <path d="M 284.809091 63.874826 
L 284.809091 61.799366 
" clip-path="url(#p60a2bddd48)" style="fill: none; stroke: #4b4bfe; stroke-width: 1.5"/>
    <path d="M 291.15 61.126353 
L 291.15 59.156707 
" clip-path="url(#p60a2bddd48)" style="fill: none; stroke: #4b4bfe; stroke-width: 1.5"/>
    <path d="M 297.490909 58.780559 
L 297.490909 56.89702 
" clip-path="url(#p60a2bddd48)" style="fill: none; stroke: #4b4bfe; stroke-width: 1.5"/>
    <path d="M 303.831818 56.629001 
L 303.831818 54.821182 
" clip-path="url(#p60a2bddd48)" style="fill: none; stroke: #4b4bfe; stroke-width: 1.5"/>
    <path d="M 310.172727 55.003186 
L 310.172727 53.250592 
" clip-path="url(#p60a2bddd48)" style="fill: none; stroke: #4b4bfe; stroke-width: 1.5"/>
    <path d="M 316.513636 53.731588 
L 316.513636 52.021026 
" clip-path="url(#p60a2bddd48)" style="fill: none; stroke: #4b4bfe; stroke-width: 1.5"/>
    <path d="M 322.854545 51.812887 
L 322.854545 50.163878 
" clip-path="url(#p60a2bddd48)" style="fill: none; stroke: #4b4bfe; stroke-width: 1.5"/>
    <path d="M 329.195455 50.227196 
L 329.195455 48.627406 
" clip-path="url(#p60a2bddd48)" style="fill: none; stroke: #4b4bfe; stroke-width: 1.5"/>
    <path d="M 335.536364 49.359267 
L 335.536364 47.785802 
" clip-path="url(#p60a2bddd48)" style="fill: none; stroke: #4b4bfe; stroke-width: 1.5"/>
    <path d="M 341.877273 48.899981 
L 341.877273 47.340273 
" clip-path="url(#p60a2bddd48)" style="fill: none; stroke: #4b4bfe; stroke-width: 1.5"/>
    <path d="M 348.218182 48.852105 
L 348.218182 47.293824 
" clip-path="url(#p60a2bddd48)" style="fill: none; stroke: #4b4bfe; stroke-width: 1.5"/>
    <path d="M 354.559091 48.780455 
L 354.559091 47.224307 
" clip-path="url(#p60a2bddd48)" style="fill: none; stroke: #4b4bfe; stroke-width: 1.5"/>
    <path d="M 360.9 48.756616 
L 360.9 47.201177 
" clip-path="url(#p60a2bddd48)" style="fill: none; stroke: #4b4bfe; stroke-width: 1.5"/>
    <path d="M 367.240909 48.661477 
L 367.240909 47.108865 
" clip-path="url(#p60a2bddd48)" style="fill: none; stroke: #4b4bfe; stroke-width: 1.5"/>
    <path d="M 373.581818 48.519419 
L 373.581818 46.97102 
" clip-path="url(#p60a2bddd48)" style="fill: none; stroke: #4b4bfe; stroke-width: 1.5"/>
   </g>
   <g id="line2d_14">
    <defs>
     <path id="m58064fa980" d="M 2 0 
L -2 -0 
" style="stroke: #4b4bfe"/>
    </defs>
    <g clip-path="url(#p60a2bddd48)">
     <use xlink:href="#m58064fa980" x="69.218182" y="242.116364" style="fill: #4b4bfe; stroke: #4b4bfe"/>
     <use xlink:href="#m58064fa980" x="75.559091" y="242.116364" style="fill: #4b4bfe; stroke: #4b4bfe"/>
     <use xlink:href="#m58064fa980" x="81.9" y="242.116364" style="fill: #4b4bfe; stroke: #4b4bfe"/>
     <use xlink:href="#m58064fa980" x="88.240909" y="242.116364" style="fill: #4b4bfe; stroke: #4b4bfe"/>
     <use xlink:href="#m58064fa980" x="94.581818" y="242.116364" style="fill: #4b4bfe; stroke: #4b4bfe"/>
     <use xlink:href="#m58064fa980" x="100.922727" y="210.481076" style="fill: #4b4bfe; stroke: #4b4bfe"/>
     <use xlink:href="#m58064fa980" x="107.263636" y="195.694701" style="fill: #4b4bfe; stroke: #4b4bfe"/>
     <use xlink:href="#m58064fa980" x="113.604545" y="186.005706" style="fill: #4b4bfe; stroke: #4b4bfe"/>
     <use xlink:href="#m58064fa980" x="119.945455" y="178.810744" style="fill: #4b4bfe; stroke: #4b4bfe"/>
     <use xlink:href="#m58064fa980" x="126.286364" y="178.810744" style="fill: #4b4bfe; stroke: #4b4bfe"/>
     <use xlink:href="#m58064fa980" x="132.627273" y="173.095899" style="fill: #4b4bfe; stroke: #4b4bfe"/>
     <use xlink:href="#m58064fa980" x="138.968182" y="168.360432" style="fill: #4b4bfe; stroke: #4b4bfe"/>
     <use xlink:href="#m58064fa980" x="145.309091" y="160.799515" style="fill: #4b4bfe; stroke: #4b4bfe"/>
     <use xlink:href="#m58064fa980" x="151.65" y="157.680621" style="fill: #4b4bfe; stroke: #4b4bfe"/>
     <use xlink:href="#m58064fa980" x="157.990909" y="152.345011" style="fill: #4b4bfe; stroke: #4b4bfe"/>
     <use xlink:href="#m58064fa980" x="164.331818" y="150.024965" style="fill: #4b4bfe; stroke: #4b4bfe"/>
     <use xlink:href="#m58064fa980" x="170.672727" y="144.969763" style="fill: #4b4bfe; stroke: #4b4bfe"/>
     <use xlink:href="#m58064fa980" x="177.013636" y="140.714276" style="fill: #4b4bfe; stroke: #4b4bfe"/>
     <use xlink:href="#m58064fa980" x="183.354545" y="135.057192" style="fill: #4b4bfe; stroke: #4b4bfe"/>
     <use xlink:href="#m58064fa980" x="189.695455" y="129.859504" style="fill: #4b4bfe; stroke: #4b4bfe"/>
     <use xlink:href="#m58064fa980" x="196.036364" y="123.370964" style="fill: #4b4bfe; stroke: #4b4bfe"/>
     <use xlink:href="#m58064fa980" x="202.377273" y="119.193513" style="fill: #4b4bfe; stroke: #4b4bfe"/>
     <use xlink:href="#m58064fa980" x="208.718182" y="113.806937" style="fill: #4b4bfe; stroke: #4b4bfe"/>
     <use xlink:href="#m58064fa980" x="215.059091" y="110.827779" style="fill: #4b4bfe; stroke: #4b4bfe"/>
     <use xlink:href="#m58064fa980" x="221.4" y="105.302244" style="fill: #4b4bfe; stroke: #4b4bfe"/>
     <use xlink:href="#m58064fa980" x="227.740909" y="100.047817" style="fill: #4b4bfe; stroke: #4b4bfe"/>
     <use xlink:href="#m58064fa980" x="234.081818" y="95.670736" style="fill: #4b4bfe; stroke: #4b4bfe"/>
     <use xlink:href="#m58064fa980" x="240.422727" y="91.548619" style="fill: #4b4bfe; stroke: #4b4bfe"/>
     <use xlink:href="#m58064fa980" x="246.763636" y="86.935" style="fill: #4b4bfe; stroke: #4b4bfe"/>
     <use xlink:href="#m58064fa980" x="253.104545" y="83.461955" style="fill: #4b4bfe; stroke: #4b4bfe"/>
     <use xlink:href="#m58064fa980" x="259.445455" y="79.527489" style="fill: #4b4bfe; stroke: #4b4bfe"/>
     <use xlink:href="#m58064fa980" x="265.786364" y="75.502408" style="fill: #4b4bfe; stroke: #4b4bfe"/>
     <use xlink:href="#m58064fa980" x="272.127273" y="71.326027" style="fill: #4b4bfe; stroke: #4b4bfe"/>
     <use xlink:href="#m58064fa980" x="278.468182" y="67.628642" style="fill: #4b4bfe; stroke: #4b4bfe"/>
     <use xlink:href="#m58064fa980" x="284.809091" y="63.874826" style="fill: #4b4bfe; stroke: #4b4bfe"/>
     <use xlink:href="#m58064fa980" x="291.15" y="61.126353" style="fill: #4b4bfe; stroke: #4b4bfe"/>
     <use xlink:href="#m58064fa980" x="297.490909" y="58.780559" style="fill: #4b4bfe; stroke: #4b4bfe"/>
     <use xlink:href="#m58064fa980" x="303.831818" y="56.629001" style="fill: #4b4bfe; stroke: #4b4bfe"/>
     <use xlink:href="#m58064fa980" x="310.172727" y="55.003186" style="fill: #4b4bfe; stroke: #4b4bfe"/>
     <use xlink:href="#m58064fa980" x="316.513636" y="53.731588" style="fill: #4b4bfe; stroke: #4b4bfe"/>
     <use xlink:href="#m58064fa980" x="322.854545" y="51.812887" style="fill: #4b4bfe; stroke: #4b4bfe"/>
     <use xlink:href="#m58064fa980" x="329.195455" y="50.227196" style="fill: #4b4bfe; stroke: #4b4bfe"/>
     <use xlink:href="#m58064fa980" x="335.536364" y="49.359267" style="fill: #4b4bfe; stroke: #4b4bfe"/>
     <use xlink:href="#m58064fa980" x="341.877273" y="48.899981" style="fill: #4b4bfe; stroke: #4b4bfe"/>
     <use xlink:href="#m58064fa980" x="348.218182" y="48.852105" style="fill: #4b4bfe; stroke: #4b4bfe"/>
     <use xlink:href="#m58064fa980" x="354.559091" y="48.780455" style="fill: #4b4bfe; stroke: #4b4bfe"/>
     <use xlink:href="#m58064fa980" x="360.9" y="48.756616" style="fill: #4b4bfe; stroke: #4b4bfe"/>
     <use xlink:href="#m58064fa980" x="367.240909" y="48.661477" style="fill: #4b4bfe; stroke: #4b4bfe"/>
     <use xlink:href="#m58064fa980" x="373.581818" y="48.519419" style="fill: #4b4bfe; stroke: #4b4bfe"/>
    </g>
   </g>
   <g id="line2d_15">
    <g clip-path="url(#p60a2bddd48)">
     <use xlink:href="#m58064fa980" x="69.218182" y="196.703162" style="fill: #4b4bfe; stroke: #4b4bfe"/>
     <use xlink:href="#m58064fa980" x="75.559091" y="196.703162" style="fill: #4b4bfe; stroke: #4b4bfe"/>
     <use xlink:href="#m58064fa980" x="81.9" y="196.703162" style="fill: #4b4bfe; stroke: #4b4bfe"/>
     <use xlink:href="#m58064fa980" x="88.240909" y="196.703162" style="fill: #4b4bfe; stroke: #4b4bfe"/>
     <use xlink:href="#m58064fa980" x="94.581818" y="196.703162" style="fill: #4b4bfe; stroke: #4b4bfe"/>
     <use xlink:href="#m58064fa980" x="100.922727" y="182.177811" style="fill: #4b4bfe; stroke: #4b4bfe"/>
     <use xlink:href="#m58064fa980" x="107.263636" y="173.358024" style="fill: #4b4bfe; stroke: #4b4bfe"/>
     <use xlink:href="#m58064fa980" x="113.604545" y="166.967092" style="fill: #4b4bfe; stroke: #4b4bfe"/>
     <use xlink:href="#m58064fa980" x="119.945455" y="161.938716" style="fill: #4b4bfe; stroke: #4b4bfe"/>
     <use xlink:href="#m58064fa980" x="126.286364" y="161.938716" style="fill: #4b4bfe; stroke: #4b4bfe"/>
     <use xlink:href="#m58064fa980" x="132.627273" y="157.786629" style="fill: #4b4bfe; stroke: #4b4bfe"/>
     <use xlink:href="#m58064fa980" x="138.968182" y="154.24698" style="fill: #4b4bfe; stroke: #4b4bfe"/>
     <use xlink:href="#m58064fa980" x="145.309091" y="148.422133" style="fill: #4b4bfe; stroke: #4b4bfe"/>
     <use xlink:href="#m58064fa980" x="151.65" y="145.961173" style="fill: #4b4bfe; stroke: #4b4bfe"/>
     <use xlink:href="#m58064fa980" x="157.990909" y="141.677573" style="fill: #4b4bfe; stroke: #4b4bfe"/>
     <use xlink:href="#m58064fa980" x="164.331818" y="139.787361" style="fill: #4b4bfe; stroke: #4b4bfe"/>
     <use xlink:href="#m58064fa980" x="170.672727" y="135.614033" style="fill: #4b4bfe; stroke: #4b4bfe"/>
     <use xlink:href="#m58064fa980" x="177.013636" y="132.045828" style="fill: #4b4bfe; stroke: #4b4bfe"/>
     <use xlink:href="#m58064fa980" x="183.354545" y="127.229771" style="fill: #4b4bfe; stroke: #4b4bfe"/>
     <use xlink:href="#m58064fa980" x="189.695455" y="122.73691" style="fill: #4b4bfe; stroke: #4b4bfe"/>
     <use xlink:href="#m58064fa980" x="196.036364" y="117.044523" style="fill: #4b4bfe; stroke: #4b4bfe"/>
     <use xlink:href="#m58064fa980" x="202.377273" y="113.334275" style="fill: #4b4bfe; stroke: #4b4bfe"/>
     <use xlink:href="#m58064fa980" x="208.718182" y="108.501867" style="fill: #4b4bfe; stroke: #4b4bfe"/>
     <use xlink:href="#m58064fa980" x="215.059091" y="105.807354" style="fill: #4b4bfe; stroke: #4b4bfe"/>
     <use xlink:href="#m58064fa980" x="221.4" y="100.771519" style="fill: #4b4bfe; stroke: #4b4bfe"/>
     <use xlink:href="#m58064fa980" x="227.740909" y="95.939988" style="fill: #4b4bfe; stroke: #4b4bfe"/>
     <use xlink:href="#m58064fa980" x="234.081818" y="91.885911" style="fill: #4b4bfe; stroke: #4b4bfe"/>
     <use xlink:href="#m58064fa980" x="240.422727" y="88.045453" style="fill: #4b4bfe; stroke: #4b4bfe"/>
     <use xlink:href="#m58064fa980" x="246.763636" y="83.723009" style="fill: #4b4bfe; stroke: #4b4bfe"/>
     <use xlink:href="#m58064fa980" x="253.104545" y="80.453514" style="fill: #4b4bfe; stroke: #4b4bfe"/>
     <use xlink:href="#m58064fa980" x="259.445455" y="76.734495" style="fill: #4b4bfe; stroke: #4b4bfe"/>
     <use xlink:href="#m58064fa980" x="265.786364" y="72.914244" style="fill: #4b4bfe; stroke: #4b4bfe"/>
     <use xlink:href="#m58064fa980" x="272.127273" y="68.934875" style="fill: #4b4bfe; stroke: #4b4bfe"/>
     <use xlink:href="#m58064fa980" x="278.468182" y="65.399612" style="fill: #4b4bfe; stroke: #4b4bfe"/>
     <use xlink:href="#m58064fa980" x="284.809091" y="61.799366" style="fill: #4b4bfe; stroke: #4b4bfe"/>
     <use xlink:href="#m58064fa980" x="291.15" y="59.156707" style="fill: #4b4bfe; stroke: #4b4bfe"/>
     <use xlink:href="#m58064fa980" x="297.490909" y="56.89702" style="fill: #4b4bfe; stroke: #4b4bfe"/>
     <use xlink:href="#m58064fa980" x="303.831818" y="54.821182" style="fill: #4b4bfe; stroke: #4b4bfe"/>
     <use xlink:href="#m58064fa980" x="310.172727" y="53.250592" style="fill: #4b4bfe; stroke: #4b4bfe"/>
     <use xlink:href="#m58064fa980" x="316.513636" y="52.021026" style="fill: #4b4bfe; stroke: #4b4bfe"/>
     <use xlink:href="#m58064fa980" x="322.854545" y="50.163878" style="fill: #4b4bfe; stroke: #4b4bfe"/>
     <use xlink:href="#m58064fa980" x="329.195455" y="48.627406" style="fill: #4b4bfe; stroke: #4b4bfe"/>
     <use xlink:href="#m58064fa980" x="335.536364" y="47.785802" style="fill: #4b4bfe; stroke: #4b4bfe"/>
     <use xlink:href="#m58064fa980" x="341.877273" y="47.340273" style="fill: #4b4bfe; stroke: #4b4bfe"/>
     <use xlink:href="#m58064fa980" x="348.218182" y="47.293824" style="fill: #4b4bfe; stroke: #4b4bfe"/>
     <use xlink:href="#m58064fa980" x="354.559091" y="47.224307" style="fill: #4b4bfe; stroke: #4b4bfe"/>
     <use xlink:href="#m58064fa980" x="360.9" y="47.201177" style="fill: #4b4bfe; stroke: #4b4bfe"/>
     <use xlink:href="#m58064fa980" x="367.240909" y="47.108865" style="fill: #4b4bfe; stroke: #4b4bfe"/>
     <use xlink:href="#m58064fa980" x="373.581818" y="46.97102" style="fill: #4b4bfe; stroke: #4b4bfe"/>
    </g>
   </g>
   <g id="LineCollection_2">
    <path d="M 274.737896 240.20263 
L 274.737896 44.443636 
" clip-path="url(#p60a2bddd48)" style="fill: none; stroke-dasharray: 3.7,1.6; stroke-dashoffset: 0; stroke: #eb0c00"/>
   </g>
   <g id="line2d_16">
    <defs>
     <path id="m14a04236a0" d="M 0 1.5 
C 0.397805 1.5 0.77937 1.341951 1.06066 1.06066 
C 1.341951 0.77937 1.5 0.397805 1.5 0 
C 1.5 -0.397805 1.341951 -0.77937 1.06066 -1.06066 
C 0.77937 -1.341951 0.397805 -1.5 0 -1.5 
C -0.397805 -1.5 -0.77937 -1.341951 -1.06066 -1.06066 
C -1.341951 -0.77937 -1.5 -0.397805 -1.5 0 
C -1.5 0.397805 -1.341951 0.77937 -1.06066 1.06066 
C -0.77937 1.341951 -0.397805 1.5 0 1.5 
z
" style="stroke: #4b4bfe"/>
    </defs>
    <g clip-path="url(#p60a2bddd48)">
     <use xlink:href="#m14a04236a0" x="69.218182" y="210.481076" style="fill: #4b4bfe; stroke: #4b4bfe"/>
     <use xlink:href="#m14a04236a0" x="75.559091" y="210.481076" style="fill: #4b4bfe; stroke: #4b4bfe"/>
     <use xlink:href="#m14a04236a0" x="81.9" y="210.481076" style="fill: #4b4bfe; stroke: #4b4bfe"/>
     <use xlink:href="#m14a04236a0" x="88.240909" y="210.481076" style="fill: #4b4bfe; stroke: #4b4bfe"/>
     <use xlink:href="#m14a04236a0" x="94.581818" y="210.481076" style="fill: #4b4bfe; stroke: #4b4bfe"/>
     <use xlink:href="#m14a04236a0" x="100.922727" y="192.623704" style="fill: #4b4bfe; stroke: #4b4bfe"/>
     <use xlink:href="#m14a04236a0" x="107.263636" y="182.177811" style="fill: #4b4bfe; stroke: #4b4bfe"/>
     <use xlink:href="#m14a04236a0" x="113.604545" y="174.766332" style="fill: #4b4bfe; stroke: #4b4bfe"/>
     <use xlink:href="#m14a04236a0" x="119.945455" y="169.017542" style="fill: #4b4bfe; stroke: #4b4bfe"/>
     <use xlink:href="#m14a04236a0" x="126.286364" y="169.017542" style="fill: #4b4bfe; stroke: #4b4bfe"/>
     <use xlink:href="#m14a04236a0" x="132.627273" y="164.320438" style="fill: #4b4bfe; stroke: #4b4bfe"/>
     <use xlink:href="#m14a04236a0" x="138.968182" y="160.349094" style="fill: #4b4bfe; stroke: #4b4bfe"/>
     <use xlink:href="#m14a04236a0" x="145.309091" y="153.874545" style="fill: #4b4bfe; stroke: #4b4bfe"/>
     <use xlink:href="#m14a04236a0" x="151.65" y="151.160169" style="fill: #4b4bfe; stroke: #4b4bfe"/>
     <use xlink:href="#m14a04236a0" x="157.990909" y="146.463066" style="fill: #4b4bfe; stroke: #4b4bfe"/>
     <use xlink:href="#m14a04236a0" x="164.331818" y="144.400946" style="fill: #4b4bfe; stroke: #4b4bfe"/>
     <use xlink:href="#m14a04236a0" x="170.672727" y="139.86952" style="fill: #4b4bfe; stroke: #4b4bfe"/>
     <use xlink:href="#m14a04236a0" x="177.013636" y="136.017173" style="fill: #4b4bfe; stroke: #4b4bfe"/>
     <use xlink:href="#m14a04236a0" x="183.354545" y="130.847345" style="fill: #4b4bfe; stroke: #4b4bfe"/>
     <use xlink:href="#m14a04236a0" x="189.695455" y="126.05284" style="fill: #4b4bfe; stroke: #4b4bfe"/>
     <use xlink:href="#m14a04236a0" x="196.036364" y="120.014035" style="fill: #4b4bfe; stroke: #4b4bfe"/>
     <use xlink:href="#m14a04236a0" x="202.377273" y="116.09768" style="fill: #4b4bfe; stroke: #4b4bfe"/>
     <use xlink:href="#m14a04236a0" x="208.718182" y="111.01809" style="fill: #4b4bfe; stroke: #4b4bfe"/>
     <use xlink:href="#m14a04236a0" x="215.059091" y="108.195467" style="fill: #4b4bfe; stroke: #4b4bfe"/>
     <use xlink:href="#m14a04236a0" x="221.4" y="102.937411" style="fill: #4b4bfe; stroke: #4b4bfe"/>
     <use xlink:href="#m14a04236a0" x="227.740909" y="97.912116" style="fill: #4b4bfe; stroke: #4b4bfe"/>
     <use xlink:href="#m14a04236a0" x="234.081818" y="93.708882" style="fill: #4b4bfe; stroke: #4b4bfe"/>
     <use xlink:href="#m14a04236a0" x="240.422727" y="89.737538" style="fill: #4b4bfe; stroke: #4b4bfe"/>
     <use xlink:href="#m14a04236a0" x="246.763636" y="85.27898" style="fill: #4b4bfe; stroke: #4b4bfe"/>
     <use xlink:href="#m14a04236a0" x="253.104545" y="81.913846" style="fill: #4b4bfe; stroke: #4b4bfe"/>
     <use xlink:href="#m14a04236a0" x="259.445455" y="78.093161" style="fill: #4b4bfe; stroke: #4b4bfe"/>
     <use xlink:href="#m14a04236a0" x="265.786364" y="74.175838" style="fill: #4b4bfe; stroke: #4b4bfe"/>
     <use xlink:href="#m14a04236a0" x="272.127273" y="70.10272" style="fill: #4b4bfe; stroke: #4b4bfe"/>
     <use xlink:href="#m14a04236a0" x="278.468182" y="66.490027" style="fill: #4b4bfe; stroke: #4b4bfe"/>
     <use xlink:href="#m14a04236a0" x="284.809091" y="62.816201" style="fill: #4b4bfe; stroke: #4b4bfe"/>
     <use xlink:href="#m14a04236a0" x="291.15" y="60.122711" style="fill: #4b4bfe; stroke: #4b4bfe"/>
     <use xlink:href="#m14a04236a0" x="297.490909" y="57.82158" style="fill: #4b4bfe; stroke: #4b4bfe"/>
     <use xlink:href="#m14a04236a0" x="303.831818" y="55.709237" style="fill: #4b4bfe; stroke: #4b4bfe"/>
     <use xlink:href="#m14a04236a0" x="310.172727" y="54.111989" style="fill: #4b4bfe; stroke: #4b4bfe"/>
     <use xlink:href="#m14a04236a0" x="316.513636" y="52.862113" style="fill: #4b4bfe; stroke: #4b4bfe"/>
     <use xlink:href="#m14a04236a0" x="322.854545" y="50.975191" style="fill: #4b4bfe; stroke: #4b4bfe"/>
     <use xlink:href="#m14a04236a0" x="329.195455" y="49.414885" style="fill: #4b4bfe; stroke: #4b4bfe"/>
     <use xlink:href="#m14a04236a0" x="335.536364" y="48.560524" style="fill: #4b4bfe; stroke: #4b4bfe"/>
     <use xlink:href="#m14a04236a0" x="341.877273" y="48.108326" style="fill: #4b4bfe; stroke: #4b4bfe"/>
     <use xlink:href="#m14a04236a0" x="348.218182" y="48.061184" style="fill: #4b4bfe; stroke: #4b4bfe"/>
     <use xlink:href="#m14a04236a0" x="354.559091" y="47.990633" style="fill: #4b4bfe; stroke: #4b4bfe"/>
     <use xlink:href="#m14a04236a0" x="360.9" y="47.967159" style="fill: #4b4bfe; stroke: #4b4bfe"/>
     <use xlink:href="#m14a04236a0" x="367.240909" y="47.873477" style="fill: #4b4bfe; stroke: #4b4bfe"/>
     <use xlink:href="#m14a04236a0" x="373.581818" y="47.733588" style="fill: #4b4bfe; stroke: #4b4bfe"/>
    </g>
   </g>
   <g id="patch_3">
    <path d="M 54 252 
L 54 34.56 
" style="fill: none; stroke: #000000; stroke-width: 0.8; stroke-linejoin: miter; stroke-linecap: square"/>
   </g>
   <g id="patch_4">
    <path d="M 388.8 252 
L 388.8 34.56 
" style="fill: none; stroke: #000000; stroke-width: 0.8; stroke-linejoin: miter; stroke-linecap: square"/>
   </g>
   <g id="patch_5">
    <path d="M 54 252 
L 388.8 252 
" style="fill: none; stroke: #000000; stroke-width: 0.8; stroke-linejoin: miter; stroke-linecap: square"/>
   </g>
   <g id="patch_6">
    <path d="M 54 34.56 
L 388.8 34.56 
" style="fill: none; stroke: #000000; stroke-width: 0.8; stroke-linejoin: miter; stroke-linecap: square"/>
   </g>
   <g id="legend_1">
    <g id="patch_7">
     <path d="M 62.4 78.09375 
L 120.7875 78.09375 
Q 123.1875 78.09375 123.1875 75.69375 
L 123.1875 42.96 
Q 123.1875 40.56 120.7875 40.56 
L 62.4 40.56 
Q 60 40.56 60 42.96 
L 60 75.69375 
Q 60 78.09375 62.4 78.09375 
z
" style="fill: #ffffff; opacity: 0.8; stroke: #cccccc; stroke-linejoin: miter"/>
    </g>
    <g id="line2d_17">
     <path d="M 64.8 49.56 
L 76.8 49.56 
L 88.8 49.56 
" style="fill: none; stroke: #000000; stroke-width: 1.5; stroke-linecap: square"/>
    </g>
    <g id="text_16">
     <!-- fit -->
     <g transform="translate(98.4 53.76)scale(0.12 -0.12)">
      <defs>
       <path id="TimesNewRomanPSMT-66" d="M 1319 2638 
L 1319 756 
Q 1319 356 1406 250 
Q 1522 113 1716 113 
L 1975 113 
L 1975 0 
L 266 0 
L 266 113 
L 394 113 
Q 519 113 622 175 
Q 725 238 764 344 
Q 803 450 803 756 
L 803 2638 
L 247 2638 
L 247 2863 
L 803 2863 
L 803 3050 
Q 803 3478 940 3775 
Q 1078 4072 1361 4255 
Q 1644 4438 1997 4438 
Q 2325 4438 2600 4225 
Q 2781 4084 2781 3909 
Q 2781 3816 2700 3733 
Q 2619 3650 2525 3650 
Q 2453 3650 2373 3701 
Q 2294 3753 2178 3923 
Q 2063 4094 1966 4153 
Q 1869 4213 1750 4213 
Q 1606 4213 1506 4136 
Q 1406 4059 1362 3898 
Q 1319 3738 1319 3069 
L 1319 2863 
L 2056 2863 
L 2056 2638 
L 1319 2638 
z
" transform="scale(0.015625)"/>
       <path id="TimesNewRomanPSMT-69" d="M 928 4444 
Q 1059 4444 1151 4351 
Q 1244 4259 1244 4128 
Q 1244 3997 1151 3903 
Q 1059 3809 928 3809 
Q 797 3809 703 3903 
Q 609 3997 609 4128 
Q 609 4259 701 4351 
Q 794 4444 928 4444 
z
M 1188 2947 
L 1188 647 
Q 1188 378 1227 289 
Q 1266 200 1342 156 
Q 1419 113 1622 113 
L 1622 0 
L 231 0 
L 231 113 
Q 441 113 512 153 
Q 584 194 626 287 
Q 669 381 669 647 
L 669 1750 
Q 669 2216 641 2353 
Q 619 2453 572 2492 
Q 525 2531 444 2531 
Q 356 2531 231 2484 
L 188 2597 
L 1050 2947 
L 1188 2947 
z
" transform="scale(0.015625)"/>
       <path id="TimesNewRomanPSMT-74" d="M 1031 3803 
L 1031 2863 
L 1700 2863 
L 1700 2644 
L 1031 2644 
L 1031 788 
Q 1031 509 1111 412 
Q 1191 316 1316 316 
Q 1419 316 1516 380 
Q 1613 444 1666 569 
L 1788 569 
Q 1678 263 1478 108 
Q 1278 -47 1066 -47 
Q 922 -47 784 33 
Q 647 113 581 261 
Q 516 409 516 719 
L 516 2644 
L 63 2644 
L 63 2747 
Q 234 2816 414 2980 
Q 594 3144 734 3369 
Q 806 3488 934 3803 
L 1031 3803 
z
" transform="scale(0.015625)"/>
      </defs>
      <use xlink:href="#TimesNewRomanPSMT-66"/>
      <use xlink:href="#TimesNewRomanPSMT-69" x="33.300781"/>
      <use xlink:href="#TimesNewRomanPSMT-74" x="61.083984"/>
     </g>
    </g>
    <g id="LineCollection_3">
     <path d="M 76.8 72.526875 
L 76.8 60.526875 
" style="fill: none; stroke: #4b4bfe; stroke-width: 1.5"/>
    </g>
    <g id="line2d_18">
     <g>
      <use xlink:href="#m58064fa980" x="76.8" y="72.526875" style="fill: #4b4bfe; stroke: #4b4bfe"/>
     </g>
    </g>
    <g id="line2d_19">
     <g>
      <use xlink:href="#m58064fa980" x="76.8" y="60.526875" style="fill: #4b4bfe; stroke: #4b4bfe"/>
     </g>
    </g>
    <g id="line2d_20"/>
    <g id="line2d_21">
     <g>
      <use xlink:href="#m14a04236a0" x="76.8" y="66.526875" style="fill: #4b4bfe; stroke: #4b4bfe"/>
     </g>
    </g>
    <g id="text_17">
     <!-- data -->
     <g transform="translate(98.4 70.726875)scale(0.12 -0.12)">
      <defs>
       <path id="TimesNewRomanPSMT-64" d="M 2222 322 
Q 2013 103 1813 7 
Q 1613 -88 1381 -88 
Q 913 -88 563 304 
Q 213 697 213 1313 
Q 213 1928 600 2439 
Q 988 2950 1597 2950 
Q 1975 2950 2222 2709 
L 2222 3238 
Q 2222 3728 2198 3840 
Q 2175 3953 2125 3993 
Q 2075 4034 2000 4034 
Q 1919 4034 1784 3984 
L 1744 4094 
L 2597 4444 
L 2738 4444 
L 2738 1134 
Q 2738 631 2761 520 
Q 2784 409 2836 365 
Q 2888 322 2956 322 
Q 3041 322 3181 375 
L 3216 266 
L 2366 -88 
L 2222 -88 
L 2222 322 
z
M 2222 541 
L 2222 2016 
Q 2203 2228 2109 2403 
Q 2016 2578 1861 2667 
Q 1706 2756 1559 2756 
Q 1284 2756 1069 2509 
Q 784 2184 784 1559 
Q 784 928 1059 592 
Q 1334 256 1672 256 
Q 1956 256 2222 541 
z
" transform="scale(0.015625)"/>
       <path id="TimesNewRomanPSMT-61" d="M 1822 413 
Q 1381 72 1269 19 
Q 1100 -59 909 -59 
Q 613 -59 420 144 
Q 228 347 228 678 
Q 228 888 322 1041 
Q 450 1253 767 1440 
Q 1084 1628 1822 1897 
L 1822 2009 
Q 1822 2438 1686 2597 
Q 1550 2756 1291 2756 
Q 1094 2756 978 2650 
Q 859 2544 859 2406 
L 866 2225 
Q 866 2081 792 2003 
Q 719 1925 600 1925 
Q 484 1925 411 2006 
Q 338 2088 338 2228 
Q 338 2497 613 2722 
Q 888 2947 1384 2947 
Q 1766 2947 2009 2819 
Q 2194 2722 2281 2516 
Q 2338 2381 2338 1966 
L 2338 994 
Q 2338 584 2353 492 
Q 2369 400 2405 369 
Q 2441 338 2488 338 
Q 2538 338 2575 359 
Q 2641 400 2828 588 
L 2828 413 
Q 2478 -56 2159 -56 
Q 2006 -56 1915 50 
Q 1825 156 1822 413 
z
M 1822 616 
L 1822 1706 
Q 1350 1519 1213 1441 
Q 966 1303 859 1153 
Q 753 1003 753 825 
Q 753 600 887 451 
Q 1022 303 1197 303 
Q 1434 303 1822 616 
z
" transform="scale(0.015625)"/>
      </defs>
      <use xlink:href="#TimesNewRomanPSMT-64"/>
      <use xlink:href="#TimesNewRomanPSMT-61" x="50"/>
      <use xlink:href="#TimesNewRomanPSMT-74" x="94.384766"/>
      <use xlink:href="#TimesNewRomanPSMT-61" x="122.167969"/>
     </g>
    </g>
   </g>
   <g id="line2d_22">
    <path d="M 69.218182 208.870227 
L 75.559091 204.485901 
L 81.9 200.101574 
L 88.240909 195.717247 
L 94.581818 191.332921 
L 100.922727 186.948594 
L 107.263636 182.564268 
L 113.604545 178.179941 
L 119.945455 173.795615 
L 126.286364 169.411288 
L 132.627273 165.026961 
L 138.968182 160.642635 
L 145.309091 156.258308 
L 151.65 151.873982 
L 157.990909 147.489655 
L 164.331818 143.105328 
L 170.672727 138.721002 
L 177.013636 134.336675 
L 183.354545 129.952349 
L 189.695455 125.568022 
L 196.036364 121.183695 
L 202.377273 116.799369 
L 208.718182 112.415042 
L 215.059091 108.030716 
L 221.4 103.646389 
L 227.740909 99.262062 
L 234.081818 94.877736 
L 240.422727 90.493409 
L 246.763636 86.109083 
L 253.104545 81.724756 
L 259.445455 77.340429 
L 265.786364 72.956103 
L 272.127273 68.571776 
" clip-path="url(#p60a2bddd48)" style="fill: none; stroke: #000000; stroke-width: 1.5; stroke-linecap: square"/>
   </g>
  </g>
 </g>
 <defs>
  <clipPath id="p60a2bddd48">
   <rect x="54" y="34.56" width="334.8" height="217.44"/>
  </clipPath>
 </defs>
</svg>
